<svg width="24" height="24" viewBox="0 0 24 24" fill="none" xmlns="http://www.w3.org/2000/svg">
<path fill-rule="evenodd" clip-rule="evenodd" d="M9.60229 15.1367C9.41029 15.1367 9.21829 15.0637 9.07229 14.9167C8.77929 14.6237 8.77929 14.1497 9.07229 13.8567L13.8643 9.06472C14.1573 8.77172 14.6313 8.77172 14.9243 9.06472C15.2173 9.35772 15.2173 9.83172 14.9243 10.1247L10.1323 14.9167C9.98629 15.0637 9.79429 15.1367 9.60229 15.1367Z" fill="black"/>
<path fill-rule="evenodd" clip-rule="evenodd" d="M14.3963 15.1395C14.2043 15.1395 14.0123 15.0665 13.8663 14.9195L9.07034 10.1225C8.77734 9.82952 8.77734 9.35552 9.07034 9.06252C9.36434 8.76952 9.83834 8.76952 10.1303 9.06252L14.9263 13.8595C15.2193 14.1525 15.2193 14.6265 14.9263 14.9195C14.7803 15.0665 14.5873 15.1395 14.3963 15.1395Z" fill="black"/>
<circle cx="12" cy="12" r="9.5" />
</svg>
