<svg width="25" height="24" viewBox="0 0 25 24" fill="none" xmlns="http://www.w3.org/2000/svg">
<path fill-rule="evenodd" clip-rule="evenodd" d="M12.2366 3.5C7.45719 3.5 3.56901 7.313 3.56901 12C3.56901 16.687 7.45719 20.5 12.2366 20.5C17.016 20.5 20.9042 16.687 20.9042 12C20.9042 7.313 17.016 3.5 12.2366 3.5M12.2366 22C6.61389 22 2.03943 17.514 2.03943 12C2.03943 6.486 6.61389 2 12.2366 2C17.8593 2 22.4338 6.486 22.4338 12C22.4338 17.514 17.8593 22 12.2366 22" />
<ellipse cx="10.1972" cy="9" rx="1.01972" ry="1" />
<ellipse cx="14.2761" cy="9" rx="1.01972" ry="1" />
<path d="M9.17749 14.5C10.1849 15.241 10.9773 15.5 12.2366 15.5C13.4959 15.5 14.2884 15.241 15.2958 14.5" stroke-linecap="round" stroke-linejoin="round"/>
</svg>
