<svg width="173" height="87" viewBox="0 0 173 87" fill="none" xmlns="http://www.w3.org/2000/svg">
<path d="M48.96 70.68C49.0667 69.1013 49.12 67.3947 49.12 65.56V62.648L44.864 55.832C43.9253 54.296 42.9547 52.824 41.952 51.416C41.6747 50.9893 41.3867 50.5733 41.088 50.168C40.8107 49.7627 40.512 49.3467 40.192 48.92V48.6H46.752L47.488 50.104L47.36 50.296C46.8693 50.1893 46.304 50.0827 45.664 49.976C45.024 49.8693 44.5547 49.816 44.256 49.816L51.136 60.952L54.272 56.056C54.4853 55.6933 54.7093 55.3093 54.944 54.904C55.2 54.4987 55.4453 54.0827 55.68 53.656C56.0853 52.9733 56.48 52.312 56.864 51.672C57.248 51.0107 57.6 50.392 57.92 49.816C57.6853 49.816 57.3653 49.848 56.96 49.912C56.5547 49.976 56.16 50.04 55.776 50.104C55.6053 50.1467 55.4347 50.1787 55.264 50.2C55.1147 50.2213 54.9653 50.2533 54.816 50.296L54.688 50.104L55.456 48.6H60.64V48.888C60.192 49.5067 59.7653 50.1253 59.36 50.744C58.7627 51.6187 58.1547 52.536 57.536 53.496C56.9173 54.4347 56.3413 55.32 55.808 56.152L51.872 62.328V69.784C52.1707 69.784 52.672 69.7307 53.376 69.624C54.1013 69.496 54.6987 69.3787 55.168 69.272L55.296 69.464L54.56 71H48.96V70.68ZM64.4513 71.32C62.8513 71.32 61.3899 70.9573 60.0673 70.232C58.7659 69.5067 57.7419 68.5147 56.9953 67.256C56.2486 65.976 55.8753 64.5573 55.8753 63C55.8753 61.4213 56.2486 60.0027 56.9953 58.744C57.7419 57.4853 58.7659 56.4933 60.0673 55.768C61.3686 55.0427 62.8299 54.68 64.4513 54.68C66.0726 54.68 67.5339 55.0427 68.8353 55.768C70.1366 56.4933 71.1606 57.4853 71.9073 58.744C72.6539 60.0027 73.0273 61.4213 73.0273 63C73.0273 64.5573 72.6539 65.976 71.9073 67.256C71.1606 68.5147 70.1259 69.5067 68.8033 70.232C67.5019 70.9573 66.0513 71.32 64.4513 71.32ZM64.4513 69.976C65.5819 69.976 66.6059 69.6773 67.5233 69.08C68.4406 68.4613 69.1659 67.6187 69.6993 66.552C70.2326 65.4853 70.4993 64.3013 70.4993 63C70.4993 61.6773 70.2326 60.4933 69.6993 59.448C69.1659 58.3813 68.4406 57.5493 67.5233 56.952C66.6059 56.3333 65.5819 56.024 64.4513 56.024C63.3206 56.024 62.2966 56.3333 61.3793 56.952C60.4619 57.5493 59.7366 58.3813 59.2033 59.448C58.6699 60.4933 58.4033 61.6773 58.4033 63C58.4033 64.3013 58.6699 65.4853 59.2033 66.552C59.7366 67.6187 60.4619 68.4613 61.3793 69.08C62.2966 69.6773 63.3206 69.976 64.4513 69.976ZM80.2875 71.32C78.9008 71.32 77.7062 71.0213 76.7035 70.424C75.7222 69.8053 74.9648 68.92 74.4315 67.768C73.9195 66.616 73.6635 65.24 73.6635 63.64V56.152C73.3008 56.152 72.5968 56.2693 71.5515 56.504L71.1675 56.6L71.0395 56.408L71.6475 55H74.0795C74.3782 55 74.7408 54.9893 75.1675 54.968C75.6155 54.9467 75.9462 54.9147 76.1595 54.872V55.128C76.0955 56.5787 76.0635 58.3493 76.0635 60.44V63.608C76.0635 65.5493 76.4902 67.064 77.3435 68.152C78.1968 69.24 79.3702 69.784 80.8635 69.784C81.7808 69.784 82.6128 69.5067 83.3595 68.952C84.1275 68.3973 84.7248 67.64 85.1515 66.68C85.5995 65.6987 85.8235 64.6 85.8235 63.384V60.248C85.8235 58.776 85.7808 57.1333 85.6955 55.32V55H86.2395C86.5595 55 86.9328 54.9893 87.3595 54.968C87.8075 54.9467 88.1275 54.9147 88.3195 54.872L88.3515 55.128C88.2662 56.8133 88.2235 58.584 88.2235 60.44V69.848C88.5862 69.848 89.2688 69.7307 90.2715 69.496C90.3568 69.4747 90.4315 69.4533 90.4955 69.432C90.5808 69.4107 90.6555 69.3893 90.7195 69.368L90.8155 69.56L90.2395 71H85.8235V70.68C85.8448 70.4453 85.8555 70.2 85.8555 69.944C85.8768 69.688 85.8982 69.432 85.9195 69.176C85.9195 68.8987 85.9195 68.6427 85.9195 68.408C85.9408 68.152 85.9515 67.8853 85.9515 67.608C85.4395 68.76 84.6822 69.6667 83.6795 70.328C82.6982 70.9893 81.5675 71.32 80.2875 71.32ZM103.615 60.408L102.431 60.824C102.025 59.9067 101.545 59.1173 100.991 58.456C100.436 57.7947 99.8278 57.2827 99.1665 56.92C98.5265 56.5573 97.8652 56.376 97.1825 56.376C96.5212 56.376 95.9132 56.6213 95.3585 57.112C94.8038 57.6027 94.3558 58.296 94.0145 59.192C93.6945 60.0667 93.5345 61.0587 93.5345 62.168V69.848C93.7905 69.848 94.2278 69.7947 94.8465 69.688C95.4865 69.5813 96.0305 69.4747 96.4785 69.368L96.5745 69.56L95.9985 71H91.0385V70.68C91.1238 68.7387 91.1665 67.032 91.1665 65.56V56.152C90.8038 56.152 90.0892 56.2693 89.0225 56.504L88.6385 56.6L88.5425 56.408L89.1185 55H91.3905C91.7105 55 92.0838 54.9893 92.5105 54.968C92.9585 54.9467 93.2892 54.9147 93.5025 54.872L93.5345 55.128L93.4705 56.12C93.4492 56.4613 93.4278 56.8027 93.4065 57.144C93.4065 57.4853 93.4065 57.8373 93.4065 58.2C93.8118 57.0907 94.4092 56.2267 95.1985 55.608C95.9878 54.968 96.8198 54.648 97.6945 54.648C98.3558 54.648 98.9105 54.7653 99.3585 55C99.8278 55.2347 100.276 55.5333 100.703 55.896C100.809 55.9813 100.905 56.0667 100.991 56.152C101.097 56.216 101.193 56.2693 101.279 56.312L100.351 54.04L100.447 53.912H101.919L103.615 60.408ZM107.632 58.68C107.141 57.2293 106.693 55.9067 106.288 54.712C105.882 53.5173 105.466 52.3653 105.04 51.256C104.89 50.872 104.741 50.488 104.592 50.104C104.464 49.6987 104.325 49.304 104.176 48.92V48.6H107.472C107.856 49.9867 108.261 51.384 108.688 52.792C109.114 54.2 109.605 55.7787 110.16 57.528L113.52 68.12L118.736 54.136L116.784 48.952V48.6H122.64L123.376 50.104L123.248 50.296C123.013 50.2533 122.746 50.2 122.448 50.136C122.149 50.072 121.85 50.0187 121.552 49.976C120.826 49.848 120.357 49.784 120.144 49.784L127.024 68.216L130.096 58.648C130.352 57.88 130.608 57.048 130.864 56.152C131.141 55.256 131.397 54.3707 131.632 53.496C131.824 52.8347 131.994 52.1947 132.144 51.576C132.314 50.936 132.474 50.3387 132.624 49.784C132.41 49.784 132.144 49.816 131.824 49.88C131.504 49.9227 131.162 49.976 130.8 50.04C130.33 50.1253 129.904 50.2107 129.52 50.296L129.392 50.104L130.128 48.6H135.216V48.984C134.746 50.136 134.266 51.3413 133.776 52.6C133.306 53.8587 132.837 55.1813 132.368 56.568C132.261 56.8667 132.154 57.1547 132.048 57.432C131.962 57.7093 131.877 57.976 131.792 58.232L127.632 71H125.2L119.536 56.088L114.064 71H111.664L107.632 58.68ZM136.912 71.352C135.226 71.352 133.925 70.968 133.008 70.2C132.09 69.4107 131.632 68.3867 131.632 67.128C131.632 65.9333 132.005 64.9947 132.752 64.312C133.498 63.6293 134.416 63.1493 135.504 62.872C136.613 62.5733 137.914 62.3707 139.408 62.264C140.432 62.1787 141.264 62.072 141.904 61.944C142.544 61.7947 143.045 61.5707 143.408 61.272C143.77 60.9733 143.952 60.5893 143.952 60.12C143.952 58.8613 143.61 57.8587 142.928 57.112C142.266 56.344 141.381 55.96 140.272 55.96C139.418 55.96 138.586 56.184 137.776 56.632C136.965 57.0587 136.229 57.6453 135.568 58.392C134.906 59.1387 134.362 59.9813 133.936 60.92L133.904 60.952L132.816 60.696L134.64 53.976H136.112L136.176 54.104L135.28 56.408C135.536 56.3227 135.888 56.1627 136.336 55.928C136.954 55.544 137.573 55.2453 138.192 55.032C138.81 54.7973 139.546 54.68 140.4 54.68C142.17 54.68 143.568 55.256 144.592 56.408C145.637 57.56 146.16 59.1173 146.16 61.08V69.848C146.416 69.848 147.13 69.72 148.304 69.464C148.368 69.4427 148.432 69.432 148.496 69.432C148.56 69.4107 148.613 69.3893 148.656 69.368L148.784 69.56L148.176 71H143.856V70.68C143.877 70.36 143.888 70.0293 143.888 69.688C143.909 69.3253 143.92 68.9733 143.92 68.632C143.941 68.3973 143.952 68.1733 143.952 67.96C143.952 67.7467 143.952 67.5333 143.952 67.32C143.44 68.5573 142.544 69.5387 141.264 70.264C139.984 70.9893 138.533 71.352 136.912 71.352ZM137.552 69.912C138.725 69.912 139.802 69.656 140.784 69.144C141.765 68.6107 142.533 67.8853 143.088 66.968C143.664 66.0507 143.952 65.0373 143.952 63.928L143.984 62.168C143.621 62.488 143.088 62.7547 142.384 62.968C141.68 63.16 140.869 63.2987 139.952 63.384C137.946 63.5547 136.453 63.9173 135.472 64.472C134.512 65.0267 134.032 65.88 134.032 67.032C134.032 67.9493 134.352 68.664 134.992 69.176C135.632 69.6667 136.485 69.912 137.552 69.912ZM145.679 71.544L146.735 71.224L146.799 71.448L146.991 71.896C147.333 72.6427 147.77 73.3573 148.303 74.04C148.837 74.7227 149.402 75.2773 149.999 75.704C150.597 76.1307 151.141 76.344 151.631 76.344C152.207 76.344 152.666 76.1413 153.007 75.736C153.37 75.352 153.551 74.84 153.551 74.2V73.304C153.551 72.792 153.466 72.248 153.295 71.672C153.146 71.1173 152.858 70.424 152.431 69.592C152.41 69.5493 152.389 69.5067 152.367 69.464C152.367 69.4 152.346 69.3467 152.303 69.304L148.719 62.2C147.674 60.088 146.661 58.1573 145.679 56.408L145.007 55.224V55H150.575L151.151 56.312L151.055 56.536C150.693 56.4293 150.234 56.344 149.679 56.28C149.146 56.1947 148.741 56.152 148.463 56.152L154.031 67.864C154.095 67.9707 154.149 68.0773 154.191 68.184C154.234 68.2907 154.277 68.408 154.319 68.536C154.383 68.664 154.426 68.792 154.447 68.92C154.49 69.0267 154.533 69.144 154.575 69.272C154.597 69.1653 154.618 69.0587 154.639 68.952C154.682 68.8453 154.725 68.7387 154.767 68.632C154.81 68.504 154.853 68.376 154.895 68.248C154.938 68.0987 154.981 67.9493 155.023 67.8L157.775 60.792C157.989 60.2587 158.287 59.384 158.671 58.168C158.799 57.784 158.906 57.4213 158.991 57.08C159.098 56.7173 159.183 56.408 159.247 56.152C158.991 56.152 158.597 56.1947 158.063 56.28C157.551 56.3653 157.103 56.4613 156.719 56.568L156.591 56.376L157.199 55H161.679V55.288C161.295 55.992 160.943 56.7173 160.623 57.464C160.111 58.5733 159.642 59.6613 159.215 60.728L155.887 69.048C155.695 69.5173 155.557 69.9653 155.471 70.392C155.386 70.7973 155.343 71.2347 155.343 71.704V73.016C155.343 74.488 154.991 75.64 154.287 76.472C153.605 77.304 152.719 77.72 151.631 77.72C151.055 77.72 150.543 77.6133 150.095 77.4C149.669 77.208 149.263 76.9413 148.879 76.6C148.517 76.3653 148.25 76.216 148.079 76.152L148.879 78.232L148.783 78.36H147.407L145.679 71.544Z"/>
<path d="M27.6562 12.4531C25.1406 11.1875 22.6406 10.5547 20.1562 10.5547C18.1875 10.5547 16.4141 10.875 14.8359 11.5156C13.2578 12.1406 11.9062 13.1328 10.7812 14.4922C9.67188 15.8516 8.82031 17.5859 8.22656 19.6953C7.63281 21.8047 7.33594 24.3359 7.33594 27.2891C7.33594 28.7891 7.48438 30.2266 7.78125 31.6016C8.07812 32.9766 8.5 34.2656 9.04688 35.4688C9.60938 36.6562 10.2891 37.7422 11.0859 38.7266C11.8984 39.6953 12.8125 40.5312 13.8281 41.2344C14.8438 41.9219 15.9531 42.4609 17.1562 42.8516C18.375 43.2266 19.6641 43.4141 21.0234 43.4141C22.0078 43.4141 22.8984 43.3672 23.6953 43.2734C24.5078 43.1797 25.2734 43.0156 25.9922 42.7812C26.7109 42.5312 27.4219 42.1953 28.125 41.7734C28.8281 41.3359 29.5781 40.7812 30.375 40.1094L31.3359 41.2109C30.4141 41.8984 29.5234 42.4766 28.6641 42.9453C27.8047 43.4141 26.9219 43.7969 26.0156 44.0938C25.125 44.4062 24.1797 44.625 23.1797 44.75C22.1797 44.8906 21.0781 44.9609 19.875 44.9609C17.5 44.9609 15.2969 44.5312 13.2656 43.6719C11.25 42.8125 9.50781 41.6016 8.03906 40.0391C6.57031 38.4609 5.42188 36.5625 4.59375 34.3438C3.76562 32.1094 3.35156 29.6328 3.35156 26.9141C3.35156 24.1328 3.80469 21.6328 4.71094 19.4141C5.63281 17.1797 6.89844 15.2813 8.50781 13.7188C10.1172 12.1562 12.0156 10.9609 14.2031 10.1328C16.3906 9.28906 18.7578 8.86719 21.3047 8.86719C24.5234 8.86719 27.6016 9.66406 30.5391 11.2578C30.0391 13.7891 29.2656 16.1406 28.2188 18.3125L27.6094 17.9844C27.7969 16.8438 27.8906 15.7109 27.8906 14.5859C27.8906 13.5859 27.8125 12.875 27.6562 12.4531ZM49.2956 27.6406C49.2956 26.3281 49.1706 25.2578 48.9206 24.4297C48.6706 23.5859 48.3269 22.9297 47.8894 22.4609C47.4675 21.9766 46.9675 21.6406 46.3894 21.4531C45.8269 21.2656 45.2253 21.1719 44.5847 21.1719C43.8034 21.1719 43.0691 21.2422 42.3816 21.3828C41.7097 21.5234 41.03 21.7422 40.3425 22.0391C39.6706 22.3203 38.9831 22.6797 38.28 23.1172C37.5769 23.5391 36.8191 24.0391 36.0066 24.6172V40.7891C36.0066 41.2891 36.0456 41.6953 36.1238 42.0078C36.2019 42.3047 36.3659 42.5547 36.6159 42.7578C36.8659 42.9609 37.2175 43.1406 37.6706 43.2969C38.1238 43.4531 38.7175 43.625 39.4519 43.8125L39.2644 44.375C38.3581 44.25 37.5847 44.1562 36.9441 44.0938C36.3191 44.0312 35.6863 44 35.0456 44C34.405 44 33.4909 44.125 32.3034 44.375L32.1628 44.1406C32.4753 43.6875 32.6316 42.8594 32.6316 41.6562V13.5781C32.6316 12.5312 32.5769 11.6562 32.4675 10.9531C32.3738 10.25 32.1941 9.6875 31.9284 9.26562C31.6784 8.84375 31.3269 8.54687 30.8738 8.375C30.4206 8.20313 29.9363 8.11719 29.4206 8.11719C28.9206 8.11719 28.6159 8.125 28.5066 8.14062L28.4128 7.71875C30.9597 6.95312 33.3269 6.57031 35.5144 6.57031C35.8425 7.39844 36.0066 8.28906 36.0066 9.24219V22.9766C37.0847 22.2422 38.0613 21.6406 38.9363 21.1719C39.8269 20.6875 40.655 20.3047 41.4206 20.0234C42.2019 19.7422 42.9363 19.5469 43.6238 19.4375C44.3269 19.3281 45.0378 19.2734 45.7566 19.2734C46.7409 19.2734 47.6394 19.4062 48.4519 19.6719C49.28 19.9219 49.9909 20.3438 50.5847 20.9375C51.1784 21.5156 51.655 22.2812 52.0144 23.2344C52.3738 24.1875 52.5847 25.3672 52.6472 26.7734V41.3516C52.6472 41.7266 52.7331 42.0391 52.905 42.2891C53.0925 42.5391 53.3269 42.75 53.6081 42.9219C53.905 43.0938 54.2409 43.2422 54.6159 43.3672C54.9909 43.4766 55.3816 43.5938 55.7878 43.7188L55.5769 44.2812C54.7019 44.0938 53.6784 44 52.5066 44C51.3347 44 50.155 44.125 48.9675 44.375L48.8269 44.1406C49.1394 43.6875 49.2956 42.8594 49.2956 41.6562V27.6406ZM71.4038 41.3516C71.4038 41.6172 71.4584 41.8672 71.5678 42.1016C71.6928 42.3203 71.8334 42.5078 71.9897 42.6641C72.1616 42.8047 72.4038 42.9453 72.7163 43.0859C73.0288 43.2266 73.3022 43.3359 73.5366 43.4141C73.7709 43.4922 74.0991 43.5938 74.5209 43.7188L74.3334 44.2812C73.3334 44.0938 72.3413 44 71.3569 44C70.1225 44 68.9038 44.125 67.7006 44.375L67.56 44.1406C67.8881 43.6875 68.0522 42.8594 68.0522 41.6562V40.1094C67.2709 41.5625 66.0522 42.7344 64.3959 43.625C62.7553 44.5156 61.0913 44.9609 59.4038 44.9609C57.6069 44.9609 56.1538 44.5 55.0444 43.5781C53.9506 42.6406 53.4038 41.2578 53.4038 39.4297C53.4038 38.2422 53.6459 37.1875 54.1303 36.2656C54.6303 35.3281 55.2866 34.5391 56.0991 33.8984C56.9272 33.2422 57.9819 32.6641 59.2631 32.1641C60.56 31.6641 61.8881 31.2578 63.2475 30.9453C64.6225 30.6328 66.2241 30.3438 68.0522 30.0781V27.9219C68.0522 23.625 66.3569 21.4766 62.9663 21.4766C61.8725 21.4766 60.5288 21.75 58.935 22.2969C57.3569 22.8281 56.0288 23.5312 54.9506 24.4062L53.9897 23.3047C55.3491 22.2266 56.9584 21.3359 58.8178 20.6328C60.6928 19.9297 62.4428 19.5781 64.0678 19.5781C64.7866 19.5781 65.4663 19.6484 66.1069 19.7891C66.7631 19.9141 67.4194 20.1562 68.0756 20.5156C68.7475 20.8594 69.3178 21.3047 69.7866 21.8516C70.2709 22.3828 70.6616 23.1016 70.9584 24.0078C71.2553 24.8984 71.4038 25.9141 71.4038 27.0547V41.3516ZM60.5053 43.1797C61.8647 43.1797 63.2866 42.7344 64.7709 41.8438C66.2553 40.9375 67.3491 39.8125 68.0522 38.4688V31.3203C64.0522 31.8984 61.1928 32.7891 59.4741 33.9922C57.7709 35.1797 56.9194 36.9141 56.9194 39.1953C56.9194 40.5859 57.2163 41.6016 57.81 42.2422C58.4038 42.8672 59.3022 43.1797 60.5053 43.1797ZM79.0041 37.5312C79.0041 39.6562 79.2384 41.125 79.7072 41.9375C80.1759 42.7344 80.9338 43.1328 81.9806 43.1328C83.1213 43.1328 84.5119 42.7031 86.1525 41.8438L86.8791 42.8516C84.3009 44.2578 82.1916 44.9609 80.5509 44.9609C79.6759 44.9609 78.965 44.8828 78.4181 44.7266C77.8713 44.5703 77.3713 44.2656 76.9181 43.8125C76.465 43.3594 76.1369 42.6953 75.9338 41.8203C75.7463 40.9297 75.6525 39.7812 75.6525 38.375V22.4844L72.1369 22.6953V21.1953C73.3713 20.9297 74.5431 20.7578 75.6525 20.6797V17.3516C76.9806 16.6016 78.0666 15.5312 78.9103 14.1406L79.6369 14.4219C79.3713 15.0469 79.1994 15.7578 79.1213 16.5547C79.0431 17.3359 79.0041 18.6641 79.0041 20.5391H87.0666V21.3594C86.4103 21.625 85.7463 21.8516 85.0744 22.0391C84.4025 22.2109 83.7072 22.2969 82.9884 22.2969H79.0041V37.5312Z" />
<g clip-path="url(#clip0_545_17073)">
<path d="M105.875 36.5008H98.75C96.8837 36.5008 95 35.0833 95 31.9183V25.6183C95.0263 22.746 96.1018 19.9824 98.024 17.848C99.9462 15.7135 102.582 14.3554 105.436 14.0295C107.047 13.9126 108.663 14.1438 110.177 14.7072C111.69 15.2707 113.064 16.1533 114.206 17.2951C115.347 18.4368 116.23 19.811 116.794 21.3241C117.357 22.8373 117.588 24.4541 117.471 26.0645C117.145 28.9196 115.786 31.5567 113.65 33.479C111.514 35.4013 108.749 36.476 105.875 36.5008ZM120 25.3508H119.985C119.985 25.647 119.985 25.9433 119.97 26.2408C119.487 33.0008 113.309 38.7233 106.355 38.977V38.9958C107.231 40.5147 108.49 41.7766 110.008 42.6551C111.525 43.5335 113.247 43.9976 115 44.0008H121.25C122.245 44.0008 123.198 43.6057 123.902 42.9024C124.605 42.1992 125 41.2453 125 40.2508V34.0008C124.998 32.2472 124.535 30.5248 123.658 29.0066C122.78 27.4884 121.519 26.2276 120 25.3508Z" />
</g>
<defs>
<clipPath id="clip0_545_17073">
<rect width="30" height="30" fill="white" transform="translate(95 14)"/>
</clipPath>
</defs>
</svg>
